<?xml version="1.0" standalone="no"?>
<!DOCTYPE svg PUBLIC "-//W3C//DTD SVG 20010904//EN"
 "http://www.w3.org/TR/2001/REC-SVG-20010904/DTD/svg10.dtd">
<svg version="1.0" xmlns="http://www.w3.org/2000/svg"
 width="2000.000000pt" height="2000.000000pt" viewBox="0 0 2000.000000 2000.000000"
 preserveAspectRatio="xMidYMid meet">

<g transform="translate(0.000000,2000.000000) scale(0.100000,-0.100000)"
fill="#cc4141" stroke="none">
<path d="M6090 18434 c-155 -13 -334 -48 -458 -90 -252 -86 -585 -298 -774
-493 -136 -140 -187 -210 -310 -426 -56 -99 -130 -225 -163 -280 -59 -96 -259
-445 -510 -890 -65 -115 -211 -365 -325 -555 -204 -339 -372 -628 -867 -1490
-138 -239 -324 -561 -415 -715 -209 -355 -301 -516 -420 -735 -53 -96 -128
-229 -168 -295 -40 -66 -166 -284 -280 -485 -114 -201 -251 -437 -305 -525
-386 -630 -435 -737 -506 -1116 -28 -149 -33 -197 -34 -329 0 -87 6 -185 13
-225 8 -38 20 -111 27 -160 29 -188 118 -404 297 -720 238 -418 1040 -1811
1233 -2140 84 -143 178 -307 210 -365 32 -58 214 -375 405 -705 191 -330 536
-928 767 -1330 231 -401 476 -824 545 -940 68 -115 178 -304 243 -420 166
-296 248 -435 325 -550 216 -323 449 -532 763 -685 218 -106 435 -166 682
-190 73 -6 1401 -11 3965 -12 3659 -3 3861 -2 3980 15 430 62 781 232 1084
526 191 186 332 405 836 1296 106 187 254 444 330 570 178 299 258 436 798
1370 247 429 555 962 684 1185 129 223 284 493 345 600 60 107 147 258 192
335 46 77 171 295 279 485 107 190 268 467 357 615 381 633 430 742 497 1105
28 152 32 197 32 340 0 312 -66 551 -264 955 -81 165 -347 630 -532 930 -95
155 -191 323 -308 540 -76 140 -238 421 -430 745 -243 411 -429 733 -745 1290
-444 784 -713 1249 -1000 1730 -100 168 -240 411 -310 540 -363 664 -516 898
-740 1129 -342 354 -662 495 -1251 555 -129 13 -643 16 -3889 18 -2776 3
-3777 0 -3885 -8z m6676 -3929 c83 -18 147 -42 199 -78 37 -25 510 -475 870
-827 116 -113 277 -269 359 -345 220 -207 267 -292 267 -490 0 -169 -50 -326
-162 -511 -60 -100 -176 -227 -644 -704 -176 -180 -432 -445 -570 -590 -137
-145 -342 -356 -455 -469 -114 -113 -246 -251 -294 -306 -48 -55 -108 -117
-132 -138 -24 -21 -44 -43 -44 -48 0 -10 661 -697 1114 -1160 442 -450 946
-983 997 -1054 102 -141 170 -314 189 -485 28 -253 -64 -400 -490 -779 -96
-85 -263 -243 -370 -350 -107 -106 -249 -244 -315 -304 -66 -61 -165 -154
-220 -207 -110 -106 -160 -139 -250 -166 -77 -23 -227 -23 -315 0 -92 24 -271
114 -365 184 -75 54 -480 455 -590 582 -42 49 -356 374 -1100 1139 -126 130
-268 276 -315 325 l-84 88 -101 -105 c-274 -287 -737 -766 -960 -995 -138
-142 -297 -310 -355 -376 -141 -160 -607 -609 -700 -675 -234 -164 -425 -219
-607 -173 -145 37 -180 60 -383 255 -102 98 -252 239 -335 315 -82 75 -261
245 -396 377 -136 132 -303 294 -372 360 -174 167 -210 241 -208 435 1 182 61
364 176 534 58 87 186 224 859 918 236 244 589 609 785 813 196 203 384 399
419 434 34 36 62 68 62 72 0 4 -53 61 -117 126 -263 266 -424 433 -500 518
-44 50 -229 239 -410 420 -182 182 -358 364 -391 404 -34 40 -187 202 -339
359 -293 303 -345 363 -419 489 -161 272 -177 536 -44 743 18 28 110 124 204
212 188 178 960 922 1098 1059 134 132 242 179 414 179 162 0 394 -84 544
-198 36 -28 173 -162 305 -298 132 -137 334 -346 450 -464 115 -118 460 -475
765 -793 l555 -577 59 62 c139 147 769 800 981 1017 127 130 296 308 376 396
203 221 600 612 679 667 125 88 248 146 375 179 88 22 156 23 251 4z"/>
</g>
</svg>
